<?xml version="1.0" encoding="utf-8"?>
<!-- Generator: Adobe Illustrator 25.2.3, SVG Export Plug-In . SVG Version: 6.00 Build 0)  -->
<svg version="1.1" id="Layer_1" xmlns="http://www.w3.org/2000/svg" xmlns:xlink="http://www.w3.org/1999/xlink" x="0px" y="0px"
	 viewBox="0 0 595.28 841.89" style="enable-background:new 0 0 595.28 841.89;" xml:space="preserve">
<style type="text/css">
	.st0{fill:#89D0C2;}
</style>
<path class="st0" d="M419.19,360.69c12.99-14.26,20.57-33.53,19.45-54.59c-2.05-38.75-33.94-69.8-72.73-70.89
	c-0.72-0.02-1.44-0.02-2.16-0.02v-0.01h-75v1.02h-75h-57.22v0c0,27.61,22.39,50,50,50h7.22h75h3.92h70.52
	c14.02,0,25.83,11.47,25.56,25.49c-0.26,13.58-11.35,24.51-25,24.51v-1.02h-7.07h-63.66h-4.27h-75v0
	c0,28.18,22.84,51.02,51.02,51.02h23.98h4.27h70.73v1.02c13.81,0,25,11.2,25,25c0,13.81-11.19,25-25,25v1.02h-69.97h-5.03v0
	c0,0.83,0.02,1.65,0.06,2.47c1.29,25.9,22.69,46.51,48.92,46.51h26.02v-1.02c41.42,0,75-33.57,75-75
	C438.75,391.74,431.34,374.02,419.19,360.69z"/>
</svg>
