<svg width="326" height="113" viewBox="0 0 326 113" fill="none" xmlns="http://www.w3.org/2000/svg">
<!-- <path d="M69.1692 96.4368L69.1749 96.4278C71.8714 92.1333 73.216 87.3395 73.216 82.072C73.216 77.8865 72.2686 73.9411 70.3747 70.2492C68.5825 66.5686 66.0898 63.4768 62.9018 60.9848C60.6948 59.2061 58.3032 57.9028 55.7314 57.0807C59.7727 55.3015 63.1319 52.807 65.787 49.5889C69.2227 45.445 70.912 40.2642 70.912 34.12C70.912 29.1443 69.6654 24.6386 67.16 20.63C64.6416 16.6005 60.8807 13.4583 55.9374 11.1829C50.9715 8.80096 45.0098 7.63199 38.088 7.63199H2.088H1.088V8.63199V109V110H2.088H39.528C46.3605 110 52.3204 108.829 57.3778 106.449L57.3853 106.445C62.5176 103.978 66.4624 100.647 69.1692 96.4368ZM52.7044 68.4339L52.7099 68.4387L52.7156 68.4434C56.2962 71.3974 58.112 75.4666 58.112 80.776C58.112 86.0016 56.3836 89.9743 52.9959 92.8271C49.585 95.6994 44.7551 97.2 38.376 97.2H16.192V63.776H37.944C44.2059 63.776 49.0905 65.3621 52.7044 68.4339ZM103.289 32.9682L103.282 32.9719C97.4522 36.4305 92.8636 41.321 89.5187 47.6163C86.1645 53.8329 84.5045 61.0564 84.5045 69.256C84.5045 77.364 86.1662 84.6306 89.5144 91.0315C92.8571 97.422 97.4431 102.409 103.272 105.966C109.101 109.523 115.62 111.296 122.801 111.296C129.766 111.296 135.898 109.774 141.161 106.695L141.166 106.692C145.363 104.205 148.755 101.212 151.321 97.7076V109V110H152.321H165.569H166.569V109V30.088V29.088H165.569H152.321H151.321V30.088V41.0699C148.836 37.6752 145.538 34.7845 141.449 32.3928C136.184 29.3128 130.003 27.792 122.945 27.792C115.769 27.792 109.209 29.5144 103.289 32.9682ZM138.417 44.6273L138.429 44.6344L138.441 44.6412C142.393 46.8471 145.526 50.0648 147.842 54.3255C150.149 58.5701 151.321 63.5841 151.321 69.4C151.321 75.2132 150.15 80.2775 147.84 84.6218C145.523 88.8831 142.387 92.1517 138.428 94.454C134.557 96.6654 130.267 97.776 125.536 97.776C120.808 97.776 116.519 96.6662 112.648 94.4562C108.787 92.1556 105.696 88.8874 103.377 84.6224C101.069 80.2802 99.8965 75.1684 99.8965 69.256C99.8965 63.4401 101.068 58.4261 103.375 54.1815C105.694 49.9148 108.783 46.6965 112.641 44.4922C116.513 42.2793 120.805 41.168 125.536 41.168C130.261 41.168 134.547 42.3235 138.417 44.6273ZM200.601 32.9682L200.595 32.9719C194.765 36.4305 190.176 41.321 186.831 47.6163C183.477 53.8329 181.817 61.0564 181.817 69.256C181.817 77.364 183.479 84.6306 186.827 91.0315C190.17 97.422 194.756 102.409 200.584 105.966L200.59 105.969C206.513 109.523 213.076 111.296 220.257 111.296C227.222 111.296 233.354 109.774 238.618 106.695L238.63 106.688C242.748 104.202 246.088 101.182 248.633 97.6267V109V110H249.633H262.881H263.881V109V2.44V1.44H262.881H249.633H248.633V2.44V40.9706C245.909 37.4383 242.361 34.5263 238.009 32.2306C232.581 29.271 226.706 27.792 220.401 27.792C213.132 27.792 206.524 29.5131 200.601 32.9682ZM235.73 44.6273L235.741 44.6344L235.754 44.6412C239.706 46.8471 242.839 50.0648 245.154 54.3255C247.461 58.5701 248.633 63.5841 248.633 69.4C248.633 75.2132 247.462 80.2775 245.153 84.6218C242.836 88.8831 239.7 92.1517 235.741 94.454C231.869 96.6654 227.579 97.776 222.849 97.776C218.12 97.776 213.832 96.6662 209.961 94.4563C206.099 92.1556 203.008 88.8871 200.689 84.6218C198.381 80.2797 197.209 75.1681 197.209 69.256C197.209 63.4401 198.381 58.4261 200.688 54.1815C203.006 49.9148 206.096 46.6965 209.953 44.4922C213.826 42.2793 218.117 41.168 222.849 41.168C227.573 41.168 231.859 42.3235 235.73 44.6273ZM307.413 31.5311C304.073 33.5044 301.311 36.0856 299.13 39.2641V30.088V29.088H298.13H285.025H284.025V30.088V109V110H285.025H298.13H299.13V109V66.088C299.13 58.2548 300.936 52.5664 304.373 48.8377C307.795 45.1245 312.994 43.184 320.161 43.184H323.617H324.617V42.184V28.648V27.648H323.617C317.338 27.648 311.925 28.9241 307.421 31.5261L307.413 31.5311ZM37.224 50.976H16.192V20.432H36.936C43.1347 20.432 47.7149 21.8419 50.8292 24.5113C53.9331 27.1718 55.52 30.8593 55.52 35.704C55.52 40.5487 53.9331 44.2362 50.8292 46.8967C47.71 49.5704 43.2216 50.976 37.224 50.976Z" stroke="#64FFDA" stroke-width="2"/> -->
</svg>
